<?xml version="1.0" encoding="UTF-8"?>
<svg xmlns="http://www.w3.org/2000/svg"
     xmlns:xlink="http://www.w3.org/1999/xlink"
     xmlns:gadfly="http://www.gadflyjl.org/ns"
     version="1.2"
     width="130mm" height="130mm" viewBox="0 0 130 130"
     stroke="none"
     fill="#000000"
     stroke-width="0.3"
     font-size="3.88"
>
<defs>
  <marker id="arrow" markerWidth="15" markerHeight="7" refX="5" refY="3.5" orient="auto" markerUnits="strokeWidth">
    <path d="M0,0 L15,3.5 L0,7 z" stroke="context-stroke" fill="context-stroke"/>
  </marker>
</defs>
<g class="plotroot xscalable yscalable" id="img-4fcee1fe-1">
  <g font-size="3.88" font-family="'PT Sans','Helvetica Neue','Helvetica',sans-serif" fill="#564A55" stroke="#000000" stroke-opacity="0.000" id="img-4fcee1fe-2">
    <g transform="translate(66.25,118.39)">
      <g class="primitive">
        <text text-anchor="middle" dy="0.6em">Nodes</text>
      </g>
    </g>
  </g>
  <g class="guide xlabels" font-size="2.82" font-family="'PT Sans Caption','Helvetica Neue','Helvetica',sans-serif" fill="#6C606B" id="img-4fcee1fe-3">
    <g transform="translate(21.75,111.72)">
      <g class="primitive">
        <text text-anchor="middle" dy="0.6em">0</text>
      </g>
    </g>
    <g transform="translate(44,111.72)">
      <g class="primitive">
        <text text-anchor="middle" dy="0.6em">5</text>
      </g>
    </g>
    <g transform="translate(66.25,111.72)">
      <g class="primitive">
        <text text-anchor="middle" dy="0.6em">10</text>
      </g>
    </g>
    <g transform="translate(88.51,111.72)">
      <g class="primitive">
        <text text-anchor="middle" dy="0.6em">15</text>
      </g>
    </g>
    <g transform="translate(110.76,111.72)">
      <g class="primitive">
        <text text-anchor="middle" dy="0.6em">20</text>
      </g>
    </g>
  </g>
  <g class="guide colorkey" id="img-4fcee1fe-4">
    <g fill="#4C404B" font-size="2.82" font-family="'PT Sans','Helvetica Neue','Helvetica',sans-serif" id="img-4fcee1fe-5">
      <g transform="translate(117.39,59.59)" id="img-4fcee1fe-6">
        <g class="primitive">
          <text dy="0.35em">Nodes</text>
        </g>
      </g>
      <g transform="translate(117.39,63.22)" id="img-4fcee1fe-7">
        <g class="primitive">
          <text dy="0.35em">True</text>
        </g>
      </g>
      <g transform="translate(117.39,66.85)" id="img-4fcee1fe-8">
        <g class="primitive">
          <text dy="0.35em">Spline</text>
        </g>
      </g>
    </g>
    <g stroke-width="0.3" id="img-4fcee1fe-9">
      <g stroke="#FFFFFF" fill-opacity="1" fill="#0000FF" id="img-4fcee1fe-10">
        <g transform="translate(114.58,66.85)" id="img-4fcee1fe-11">
          <circle cx="0" cy="0" r="0.9" class="primitive"/>
        </g>
      </g>
      <g stroke="#FFFFFF" fill-opacity="1" fill="#FF0000" id="img-4fcee1fe-12">
        <g transform="translate(114.58,63.22)" id="img-4fcee1fe-13">
          <circle cx="0" cy="0" r="0.9" class="primitive"/>
        </g>
      </g>
      <g stroke="#FFFFFF" fill-opacity="1" fill="#FFA500" id="img-4fcee1fe-14">
        <g transform="translate(114.58,59.59)" id="img-4fcee1fe-15">
          <circle cx="0" cy="0" r="0.9" class="primitive"/>
        </g>
      </g>
    </g>
    <g fill="#362A35" font-size="3.88" font-family="'PT Sans','Helvetica Neue','Helvetica',sans-serif" stroke="#000000" stroke-opacity="0.000" id="img-4fcee1fe-16">
      <g transform="translate(113.76,56.28)" id="img-4fcee1fe-17">
        <g class="primitive">
          <text dy="-0em">Legend</text>
        </g>
      </g>
    </g>
  </g>
  <g clip-path="url(#img-4fcee1fe-18)">
    <g id="img-4fcee1fe-19">
      <g pointer-events="visible" stroke-width="0.3" fill="#000000" fill-opacity="0.000" stroke="#000000" stroke-opacity="0.000" class="guide background" id="img-4fcee1fe-20">
        <g transform="translate(66.25,60.66)" id="img-4fcee1fe-21">
          <path d="M-46.51,-50.05 L 46.51 -50.05 46.51 50.05 -46.51 50.05 z" class="primitive"/>
        </g>
      </g>
      <g class="guide ygridlines xfixed" stroke-dasharray="0.5,0.5" stroke-width="0.2" stroke="#D0D0E0" id="img-4fcee1fe-22">
        <g transform="translate(66.25,108.72)" id="img-4fcee1fe-23">
          <path fill="none" d="M-46.51,0 L 46.51 0" class="primitive"/>
        </g>
        <g transform="translate(66.25,84.69)" id="img-4fcee1fe-24">
          <path fill="none" d="M-46.51,0 L 46.51 0" class="primitive"/>
        </g>
        <g transform="translate(66.25,60.66)" id="img-4fcee1fe-25">
          <path fill="none" d="M-46.51,0 L 46.51 0" class="primitive"/>
        </g>
        <g transform="translate(66.25,36.64)" id="img-4fcee1fe-26">
          <path fill="none" d="M-46.51,0 L 46.51 0" class="primitive"/>
        </g>
        <g transform="translate(66.25,12.61)" id="img-4fcee1fe-27">
          <path fill="none" d="M-46.51,0 L 46.51 0" class="primitive"/>
        </g>
      </g>
      <g class="guide xgridlines yfixed" stroke-dasharray="0.5,0.5" stroke-width="0.2" stroke="#D0D0E0" id="img-4fcee1fe-28">
        <g transform="translate(21.75,60.66)" id="img-4fcee1fe-29">
          <path fill="none" d="M0,-50.05 L 0 50.05" class="primitive"/>
        </g>
        <g transform="translate(44,60.66)" id="img-4fcee1fe-30">
          <path fill="none" d="M0,-50.05 L 0 50.05" class="primitive"/>
        </g>
        <g transform="translate(66.25,60.66)" id="img-4fcee1fe-31">
          <path fill="none" d="M0,-50.05 L 0 50.05" class="primitive"/>
        </g>
        <g transform="translate(88.51,60.66)" id="img-4fcee1fe-32">
          <path fill="none" d="M0,-50.05 L 0 50.05" class="primitive"/>
        </g>
        <g transform="translate(110.76,60.66)" id="img-4fcee1fe-33">
          <path fill="none" d="M0,-50.05 L 0 50.05" class="primitive"/>
        </g>
      </g>
      <g class="plotpanel" id="img-4fcee1fe-34">
        <metadata>
          <boundingbox value="19.745000000000005mm 10.611666666666665mm 93.0175mm 100.10333333333335mm"/>
          <unitbox value="-0.4493498469402084 1.5416218653532656 20.898699693880417 -2.0832437307065312"/>
        </metadata>
        <g stroke-width="0.3" fill="#000000" fill-opacity="0.000" class="geometry" id="img-4fcee1fe-35">
          <g class="color_RGB{N0f8}(0.0,0.0,1.0)" stroke-dasharray="none" stroke="#0000FF" id="img-4fcee1fe-36">
            <g transform="translate(68.48,67.17)" id="img-4fcee1fe-37">
              <path fill="none" d="M-42.28,17.52 L -41.39 17.52 -40.5 17.52 -39.61 17.52 -38.72 17.52 -37.83 17.52 -36.94 17.52 -36.05 17.52 -35.16 17.52 -34.27 17.52 -33.38 17.52 -32.49 17.52 -31.6 17.52 -30.71 17.52 -29.82 17.52 -28.93 17.52 -28.04 17.52 -27.15 17.52 -26.26 17.52 -25.37 17.52 -24.48 17.52 -23.59 7.91 -22.7 -1.7 -21.81 -11.31 -20.92 -20.92 -20.03 -30.53 -19.14 -30.53 -18.25 -30.53 -17.36 -30.53 -16.47 -30.53 -15.58 -30.53 -14.69 -30.53 -13.8 -30.53 -12.91 -30.53 -12.02 -30.53 -11.13 -30.53 -10.24 -30.53 -9.35 -30.53 -8.46 -30.53 -7.57 -30.53 -6.68 -30.53 -5.79 -30.53 -4.9 -30.53 -4.01 -30.53 -3.12 -30.53 -2.23 -30.53 -1.34 -28.61 -0.45 -26.69 0.45 -24.76 1.34 -22.84 2.23 -20.92 3.12 -19 4.01 -17.08 4.9 -15.15 5.79 -13.23 6.68 -11.31 7.57 -9.39 8.46 -7.47 9.35 -5.55 10.24 -3.62 11.13 -1.7 12.02 0.22 12.91 2.14 13.8 4.06 14.69 5.99 15.58 7.91 16.47 9.83 17.36 11.75 18.25 13.67 19.14 15.6 20.03 17.52 20.92 17.52 21.81 17.52 22.7 17.52 23.59 17.52 24.48 17.52 25.37 17.52 26.26 17.52 27.15 17.52 28.04 17.52 28.93 17.52 29.82 17.52 30.71 17.52 31.6 17.52 32.49 17.52 33.38 17.52 34.27 17.52 35.16 17.52 36.05 17.52 36.94 17.52 37.83 17.52 38.72 17.52 39.61 17.52 40.5 17.52 41.39 17.52 42.28 17.52" class="primitive"/>
            </g>
          </g>
        </g>
        <g stroke-width="0.3" fill="#000000" fill-opacity="0.000" class="geometry" id="img-4fcee1fe-38">
          <g class="color_RGB{N0f8}(1.0,0.0,0.0)" stroke-dasharray="none" stroke="#FF0000" id="img-4fcee1fe-39">
            <g transform="translate(68.48,68.17)" id="img-4fcee1fe-40">
              <path fill="none" d="M-42.28,16.52 L -41.39 16.52 -40.5 16.52 -39.61 16.52 -38.72 16.52 -37.83 16.52 -36.94 16.52 -36.05 16.52 -35.16 16.52 -34.27 16.52 -33.38 16.52 -32.49 16.52 -31.6 16.52 -30.71 16.52 -29.82 16.52 -28.93 16.52 -28.04 16.52 -27.15 16.52 -26.26 16.52 -25.37 16.52 -24.48 16.52 -23.59 16.52 -22.7 16.52 -21.81 16.52 -20.92 16.52 -20.03 -31.53 -19.14 -31.53 -18.25 -31.53 -17.36 -31.53 -16.47 -31.53 -15.58 -31.53 -14.69 -31.53 -13.8 -31.53 -12.91 -31.53 -12.02 -31.53 -11.13 -31.53 -10.24 -31.53 -9.35 -31.53 -8.46 -31.53 -7.57 -31.53 -6.68 -31.53 -5.79 -31.53 -4.9 -31.53 -4.01 -31.53 -3.12 -31.53 -2.23 -31.53 -1.34 -29.61 -0.45 -27.69 0.45 -25.77 1.34 -23.85 2.23 -21.92 3.12 -20 4.01 -18.08 4.9 -16.16 5.79 -14.24 6.68 -12.31 7.57 -10.39 8.46 -8.47 9.35 -6.55 10.24 -4.62 11.13 -2.7 12.02 -0.78 12.91 1.14 13.8 3.06 14.69 4.99 15.58 6.91 16.47 8.83 17.36 10.75 18.25 12.67 19.14 14.6 20.03 16.52 20.92 16.52 21.81 16.52 22.7 16.52 23.59 16.52 24.48 16.52 25.37 16.52 26.26 16.52 27.15 16.52 28.04 16.52 28.93 16.52 29.82 16.52 30.71 16.52 31.6 16.52 32.49 16.52 33.38 16.52 34.27 16.52 35.16 16.52 36.05 16.52 36.94 16.52 37.83 16.52 38.72 16.52 39.61 16.52 40.5 16.52 41.39 16.52 42.28 16.52" class="primitive"/>
            </g>
          </g>
        </g>
        <g class="geometry" id="img-4fcee1fe-41">
          <g stroke-width="0.3" id="img-4fcee1fe-42">
            <g class="color_RGBA{Float32}(1.0f0,0.64705884f0,0.0f0,1.0f0)" fill-opacity="1" stroke="#FFFFFF" fill="#FFA500" id="img-4fcee1fe-43">
              <g class="marker" id="img-4fcee1fe-44">
                <g transform="translate(110.76,84.69)" id="img-4fcee1fe-45">
                  <circle cx="0" cy="0" r="0.9" class="primitive"/>
                </g>
              </g>
            </g>
            <g class="color_RGBA{Float32}(1.0f0,0.64705884f0,0.0f0,1.0f0)" fill-opacity="1" stroke="#FFFFFF" fill="#FFA500" id="img-4fcee1fe-46">
              <g class="marker" id="img-4fcee1fe-47">
                <g transform="translate(106.31,84.69)" id="img-4fcee1fe-48">
                  <circle cx="0" cy="0" r="0.9" class="primitive"/>
                </g>
              </g>
            </g>
            <g class="color_RGBA{Float32}(1.0f0,0.64705884f0,0.0f0,1.0f0)" fill-opacity="1" stroke="#FFFFFF" fill="#FFA500" id="img-4fcee1fe-49">
              <g class="marker" id="img-4fcee1fe-50">
                <g transform="translate(101.86,84.69)" id="img-4fcee1fe-51">
                  <circle cx="0" cy="0" r="0.9" class="primitive"/>
                </g>
              </g>
            </g>
            <g class="color_RGBA{Float32}(1.0f0,0.64705884f0,0.0f0,1.0f0)" fill-opacity="1" stroke="#FFFFFF" fill="#FFA500" id="img-4fcee1fe-52">
              <g class="marker" id="img-4fcee1fe-53">
                <g transform="translate(97.41,84.69)" id="img-4fcee1fe-54">
                  <circle cx="0" cy="0" r="0.9" class="primitive"/>
                </g>
              </g>
            </g>
            <g class="color_RGBA{Float32}(1.0f0,0.64705884f0,0.0f0,1.0f0)" fill-opacity="1" stroke="#FFFFFF" fill="#FFA500" id="img-4fcee1fe-55">
              <g class="marker" id="img-4fcee1fe-56">
                <g transform="translate(92.96,84.69)" id="img-4fcee1fe-57">
                  <circle cx="0" cy="0" r="0.9" class="primitive"/>
                </g>
              </g>
            </g>
            <g class="color_RGBA{Float32}(1.0f0,0.64705884f0,0.0f0,1.0f0)" fill-opacity="1" stroke="#FFFFFF" fill="#FFA500" id="img-4fcee1fe-58">
              <g class="marker" id="img-4fcee1fe-59">
                <g transform="translate(88.51,84.69)" id="img-4fcee1fe-60">
                  <circle cx="0" cy="0" r="0.9" class="primitive"/>
                </g>
              </g>
            </g>
            <g class="color_RGBA{Float32}(1.0f0,0.64705884f0,0.0f0,1.0f0)" fill-opacity="1" stroke="#FFFFFF" fill="#FFA500" id="img-4fcee1fe-61">
              <g class="marker" id="img-4fcee1fe-62">
                <g transform="translate(84.06,75.08)" id="img-4fcee1fe-63">
                  <circle cx="0" cy="0" r="0.9" class="primitive"/>
                </g>
              </g>
            </g>
            <g class="color_RGBA{Float32}(1.0f0,0.64705884f0,0.0f0,1.0f0)" fill-opacity="1" stroke="#FFFFFF" fill="#FFA500" id="img-4fcee1fe-64">
              <g class="marker" id="img-4fcee1fe-65">
                <g transform="translate(79.61,65.47)" id="img-4fcee1fe-66">
                  <circle cx="0" cy="0" r="0.9" class="primitive"/>
                </g>
              </g>
            </g>
            <g class="color_RGBA{Float32}(1.0f0,0.64705884f0,0.0f0,1.0f0)" fill-opacity="1" stroke="#FFFFFF" fill="#FFA500" id="img-4fcee1fe-67">
              <g class="marker" id="img-4fcee1fe-68">
                <g transform="translate(75.16,55.86)" id="img-4fcee1fe-69">
                  <circle cx="0" cy="0" r="0.9" class="primitive"/>
                </g>
              </g>
            </g>
            <g class="color_RGBA{Float32}(1.0f0,0.64705884f0,0.0f0,1.0f0)" fill-opacity="1" stroke="#FFFFFF" fill="#FFA500" id="img-4fcee1fe-70">
              <g class="marker" id="img-4fcee1fe-71">
                <g transform="translate(70.7,46.25)" id="img-4fcee1fe-72">
                  <circle cx="0" cy="0" r="0.9" class="primitive"/>
                </g>
              </g>
            </g>
            <g class="color_RGBA{Float32}(1.0f0,0.64705884f0,0.0f0,1.0f0)" fill-opacity="1" stroke="#FFFFFF" fill="#FFA500" id="img-4fcee1fe-73">
              <g class="marker" id="img-4fcee1fe-74">
                <g transform="translate(66.25,36.64)" id="img-4fcee1fe-75">
                  <circle cx="0" cy="0" r="0.9" class="primitive"/>
                </g>
              </g>
            </g>
            <g class="color_RGBA{Float32}(1.0f0,0.64705884f0,0.0f0,1.0f0)" fill-opacity="1" stroke="#FFFFFF" fill="#FFA500" id="img-4fcee1fe-76">
              <g class="marker" id="img-4fcee1fe-77">
                <g transform="translate(61.8,36.64)" id="img-4fcee1fe-78">
                  <circle cx="0" cy="0" r="0.9" class="primitive"/>
                </g>
              </g>
            </g>
            <g class="color_RGBA{Float32}(1.0f0,0.64705884f0,0.0f0,1.0f0)" fill-opacity="1" stroke="#FFFFFF" fill="#FFA500" id="img-4fcee1fe-79">
              <g class="marker" id="img-4fcee1fe-80">
                <g transform="translate(57.35,36.64)" id="img-4fcee1fe-81">
                  <circle cx="0" cy="0" r="0.9" class="primitive"/>
                </g>
              </g>
            </g>
            <g class="color_RGBA{Float32}(1.0f0,0.64705884f0,0.0f0,1.0f0)" fill-opacity="1" stroke="#FFFFFF" fill="#FFA500" id="img-4fcee1fe-82">
              <g class="marker" id="img-4fcee1fe-83">
                <g transform="translate(52.9,36.64)" id="img-4fcee1fe-84">
                  <circle cx="0" cy="0" r="0.9" class="primitive"/>
                </g>
              </g>
            </g>
            <g class="color_RGBA{Float32}(1.0f0,0.64705884f0,0.0f0,1.0f0)" fill-opacity="1" stroke="#FFFFFF" fill="#FFA500" id="img-4fcee1fe-85">
              <g class="marker" id="img-4fcee1fe-86">
                <g transform="translate(48.45,36.64)" id="img-4fcee1fe-87">
                  <circle cx="0" cy="0" r="0.9" class="primitive"/>
                </g>
              </g>
            </g>
            <g class="color_RGBA{Float32}(1.0f0,0.64705884f0,0.0f0,1.0f0)" fill-opacity="1" stroke="#FFFFFF" fill="#FFA500" id="img-4fcee1fe-88">
              <g class="marker" id="img-4fcee1fe-89">
                <g transform="translate(44,84.69)" id="img-4fcee1fe-90">
                  <circle cx="0" cy="0" r="0.9" class="primitive"/>
                </g>
              </g>
            </g>
            <g class="color_RGBA{Float32}(1.0f0,0.64705884f0,0.0f0,1.0f0)" fill-opacity="1" stroke="#FFFFFF" fill="#FFA500" id="img-4fcee1fe-91">
              <g class="marker" id="img-4fcee1fe-92">
                <g transform="translate(39.55,84.69)" id="img-4fcee1fe-93">
                  <circle cx="0" cy="0" r="0.9" class="primitive"/>
                </g>
              </g>
            </g>
            <g class="color_RGBA{Float32}(1.0f0,0.64705884f0,0.0f0,1.0f0)" fill-opacity="1" stroke="#FFFFFF" fill="#FFA500" id="img-4fcee1fe-94">
              <g class="marker" id="img-4fcee1fe-95">
                <g transform="translate(35.1,84.69)" id="img-4fcee1fe-96">
                  <circle cx="0" cy="0" r="0.9" class="primitive"/>
                </g>
              </g>
            </g>
            <g class="color_RGBA{Float32}(1.0f0,0.64705884f0,0.0f0,1.0f0)" fill-opacity="1" stroke="#FFFFFF" fill="#FFA500" id="img-4fcee1fe-97">
              <g class="marker" id="img-4fcee1fe-98">
                <g transform="translate(30.65,84.69)" id="img-4fcee1fe-99">
                  <circle cx="0" cy="0" r="0.9" class="primitive"/>
                </g>
              </g>
            </g>
            <g class="color_RGBA{Float32}(1.0f0,0.64705884f0,0.0f0,1.0f0)" fill-opacity="1" stroke="#FFFFFF" fill="#FFA500" id="img-4fcee1fe-100">
              <g class="marker" id="img-4fcee1fe-101">
                <g transform="translate(26.2,84.69)" id="img-4fcee1fe-102">
                  <circle cx="0" cy="0" r="0.9" class="primitive"/>
                </g>
              </g>
            </g>
          </g>
        </g>
      </g>
    </g>
  </g>
  <g class="guide ylabels" font-size="2.82" font-family="'PT Sans Caption','Helvetica Neue','Helvetica',sans-serif" fill="#6C606B" id="img-4fcee1fe-103">
    <g transform="translate(18.74,108.72)" id="img-4fcee1fe-104">
      <g class="primitive">
        <text text-anchor="end" dy="0.35em">-0.5</text>
      </g>
    </g>
    <g transform="translate(18.74,84.69)" id="img-4fcee1fe-105">
      <g class="primitive">
        <text text-anchor="end" dy="0.35em">0.0</text>
      </g>
    </g>
    <g transform="translate(18.74,60.66)" id="img-4fcee1fe-106">
      <g class="primitive">
        <text text-anchor="end" dy="0.35em">0.5</text>
      </g>
    </g>
    <g transform="translate(18.74,36.64)" id="img-4fcee1fe-107">
      <g class="primitive">
        <text text-anchor="end" dy="0.35em">1.0</text>
      </g>
    </g>
    <g transform="translate(18.74,12.61)" id="img-4fcee1fe-108">
      <g class="primitive">
        <text text-anchor="end" dy="0.35em">1.5</text>
      </g>
    </g>
  </g>
  <g font-size="3.88" font-family="'PT Sans','Helvetica Neue','Helvetica',sans-serif" fill="#564A55" stroke="#000000" stroke-opacity="0.000" id="img-4fcee1fe-109">
    <g transform="translate(8.81,58.66)" id="img-4fcee1fe-110">
      <g class="primitive">
        <text text-anchor="middle" dy="0.35em" transform="rotate(-90,0, 2)">f, σ</text>
      </g>
    </g>
  </g>
  <g font-size="3.88" font-family="'PT Sans','Helvetica Neue','Helvetica',sans-serif" fill="#564A55" stroke="#000000" stroke-opacity="0.000" id="img-4fcee1fe-111">
    <g transform="translate(66.25,5)" id="img-4fcee1fe-112">
      <g class="primitive">
        <text text-anchor="middle" dy="0.6em">Fig.1c</text>
      </g>
    </g>
  </g>
</g>
<defs>
  <clipPath id="img-4fcee1fe-18">
    <path d="M19.75,10.61 L 112.76 10.61 112.76 110.72 19.75 110.72" />
  </clipPath>
</defs>
</svg>
