<?xml version="1.0" encoding="UTF-8"?>
<svg xmlns="http://www.w3.org/2000/svg"
     xmlns:xlink="http://www.w3.org/1999/xlink"
     xmlns:gadfly="http://www.gadflyjl.org/ns"
     version="1.2"
     width="130mm" height="130mm" viewBox="0 0 130 130"
     stroke="none"
     fill="#000000"
     stroke-width="0.3"
     font-size="3.88"
>
<defs>
  <marker id="arrow" markerWidth="15" markerHeight="7" refX="5" refY="3.5" orient="auto" markerUnits="strokeWidth">
    <path d="M0,0 L15,3.5 L0,7 z" stroke="context-stroke" fill="context-stroke"/>
  </marker>
</defs>
<g class="plotroot xscalable yscalable" id="img-0a98fed8-1">
  <g font-size="3.88" font-family="'PT Sans','Helvetica Neue','Helvetica',sans-serif" fill="#564A55" stroke="#000000" stroke-opacity="0.000" id="img-0a98fed8-2">
    <g transform="translate(66.25,118.39)">
      <g class="primitive">
        <text text-anchor="middle" dy="0.6em">Nodes</text>
      </g>
    </g>
  </g>
  <g class="guide xlabels" font-size="2.82" font-family="'PT Sans Caption','Helvetica Neue','Helvetica',sans-serif" fill="#6C606B" id="img-0a98fed8-3">
    <g transform="translate(21.75,111.72)">
      <g class="primitive">
        <text text-anchor="middle" dy="0.6em">0</text>
      </g>
    </g>
    <g transform="translate(44,111.72)">
      <g class="primitive">
        <text text-anchor="middle" dy="0.6em">5</text>
      </g>
    </g>
    <g transform="translate(66.25,111.72)">
      <g class="primitive">
        <text text-anchor="middle" dy="0.6em">10</text>
      </g>
    </g>
    <g transform="translate(88.51,111.72)">
      <g class="primitive">
        <text text-anchor="middle" dy="0.6em">15</text>
      </g>
    </g>
    <g transform="translate(110.76,111.72)">
      <g class="primitive">
        <text text-anchor="middle" dy="0.6em">20</text>
      </g>
    </g>
  </g>
  <g class="guide colorkey" id="img-0a98fed8-4">
    <g fill="#4C404B" font-size="2.82" font-family="'PT Sans','Helvetica Neue','Helvetica',sans-serif" id="img-0a98fed8-5">
      <g transform="translate(117.39,59.59)" id="img-0a98fed8-6">
        <g class="primitive">
          <text dy="0.35em">Nodes</text>
        </g>
      </g>
      <g transform="translate(117.39,63.22)" id="img-0a98fed8-7">
        <g class="primitive">
          <text dy="0.35em">True</text>
        </g>
      </g>
      <g transform="translate(117.39,66.85)" id="img-0a98fed8-8">
        <g class="primitive">
          <text dy="0.35em">Spline</text>
        </g>
      </g>
    </g>
    <g stroke-width="0.3" id="img-0a98fed8-9">
      <g stroke="#FFFFFF" fill-opacity="1" fill="#0000FF" id="img-0a98fed8-10">
        <g transform="translate(114.58,66.85)" id="img-0a98fed8-11">
          <circle cx="0" cy="0" r="0.9" class="primitive"/>
        </g>
      </g>
      <g stroke="#FFFFFF" fill-opacity="1" fill="#FF0000" id="img-0a98fed8-12">
        <g transform="translate(114.58,63.22)" id="img-0a98fed8-13">
          <circle cx="0" cy="0" r="0.9" class="primitive"/>
        </g>
      </g>
      <g stroke="#FFFFFF" fill-opacity="1" fill="#FFA500" id="img-0a98fed8-14">
        <g transform="translate(114.58,59.59)" id="img-0a98fed8-15">
          <circle cx="0" cy="0" r="0.9" class="primitive"/>
        </g>
      </g>
    </g>
    <g fill="#362A35" font-size="3.88" font-family="'PT Sans','Helvetica Neue','Helvetica',sans-serif" stroke="#000000" stroke-opacity="0.000" id="img-0a98fed8-16">
      <g transform="translate(113.76,56.28)" id="img-0a98fed8-17">
        <g class="primitive">
          <text dy="-0em">Legend</text>
        </g>
      </g>
    </g>
  </g>
  <g clip-path="url(#img-0a98fed8-18)">
    <g id="img-0a98fed8-19">
      <g pointer-events="visible" stroke-width="0.3" fill="#000000" fill-opacity="0.000" stroke="#000000" stroke-opacity="0.000" class="guide background" id="img-0a98fed8-20">
        <g transform="translate(66.25,60.66)" id="img-0a98fed8-21">
          <path d="M-46.51,-50.05 L 46.51 -50.05 46.51 50.05 -46.51 50.05 z" class="primitive"/>
        </g>
      </g>
      <g class="guide ygridlines xfixed" stroke-dasharray="0.5,0.5" stroke-width="0.2" stroke="#D0D0E0" id="img-0a98fed8-22">
        <g transform="translate(66.25,108.72)" id="img-0a98fed8-23">
          <path fill="none" d="M-46.51,0 L 46.51 0" class="primitive"/>
        </g>
        <g transform="translate(66.25,84.69)" id="img-0a98fed8-24">
          <path fill="none" d="M-46.51,0 L 46.51 0" class="primitive"/>
        </g>
        <g transform="translate(66.25,60.66)" id="img-0a98fed8-25">
          <path fill="none" d="M-46.51,0 L 46.51 0" class="primitive"/>
        </g>
        <g transform="translate(66.25,36.64)" id="img-0a98fed8-26">
          <path fill="none" d="M-46.51,0 L 46.51 0" class="primitive"/>
        </g>
        <g transform="translate(66.25,12.61)" id="img-0a98fed8-27">
          <path fill="none" d="M-46.51,0 L 46.51 0" class="primitive"/>
        </g>
      </g>
      <g class="guide xgridlines yfixed" stroke-dasharray="0.5,0.5" stroke-width="0.2" stroke="#D0D0E0" id="img-0a98fed8-28">
        <g transform="translate(21.75,60.66)" id="img-0a98fed8-29">
          <path fill="none" d="M0,-50.05 L 0 50.05" class="primitive"/>
        </g>
        <g transform="translate(44,60.66)" id="img-0a98fed8-30">
          <path fill="none" d="M0,-50.05 L 0 50.05" class="primitive"/>
        </g>
        <g transform="translate(66.25,60.66)" id="img-0a98fed8-31">
          <path fill="none" d="M0,-50.05 L 0 50.05" class="primitive"/>
        </g>
        <g transform="translate(88.51,60.66)" id="img-0a98fed8-32">
          <path fill="none" d="M0,-50.05 L 0 50.05" class="primitive"/>
        </g>
        <g transform="translate(110.76,60.66)" id="img-0a98fed8-33">
          <path fill="none" d="M0,-50.05 L 0 50.05" class="primitive"/>
        </g>
      </g>
      <g class="plotpanel" id="img-0a98fed8-34">
        <metadata>
          <boundingbox value="19.745000000000005mm 10.611666666666665mm 93.0175mm 100.10333333333335mm"/>
          <unitbox value="-0.4493498469402084 1.5416218653532656 20.898699693880417 -2.0832437307065312"/>
        </metadata>
        <g stroke-width="0.3" fill="#000000" fill-opacity="0.000" class="geometry" id="img-0a98fed8-35">
          <g class="color_RGB{N0f8}(0.0,0.0,1.0)" stroke-dasharray="none" stroke="#0000FF" id="img-0a98fed8-36">
            <g transform="translate(68.48,67.17)" id="img-0a98fed8-37">
              <path fill="none" d="M-42.28,17.52 L -41.39 17.46 -40.5 17.42 -39.61 17.4 -38.72 17.43 -37.83 17.52 -36.94 17.67 -36.05 17.82 -35.16 17.9 -34.27 17.82 -33.38 17.52 -32.49 16.98 -31.6 16.42 -30.71 16.13 -29.82 16.4 -28.93 17.52 -28.04 19.54 -27.15 21.62 -26.26 22.69 -25.37 21.68 -24.48 17.52 -23.59 9.6 -22.7 -0.86 -21.81 -12.16 -20.92 -22.61 -20.03 -30.53 -19.14 -34.69 -18.25 -35.69 -17.36 -34.62 -16.47 -32.54 -15.58 -30.53 -14.69 -29.44 -13.8 -29.19 -12.91 -29.49 -12.02 -30.04 -11.13 -30.53 -10.24 -30.74 -9.35 -30.73 -8.46 -30.61 -7.57 -30.5 -6.68 -30.53 -5.79 -30.77 -4.9 -31.08 -4.01 -31.27 -3.12 -31.15 -2.23 -30.53 -1.34 -29.29 -0.45 -27.53 0.45 -25.43 1.34 -23.17 2.23 -20.92 3.12 -18.82 4.01 -16.86 4.9 -14.99 5.79 -13.16 6.68 -11.31 7.57 -9.41 8.46 -7.48 9.35 -5.53 10.24 -3.6 11.13 -1.7 12.02 0.15 12.91 1.99 13.8 3.86 14.69 5.82 15.58 7.91 16.47 10.15 17.36 12.4 18.25 14.49 19.14 16.25 20.03 17.52 20.92 18.18 21.81 18.34 22.7 18.17 23.59 17.84 24.48 17.52 25.37 17.34 26.26 17.3 27.15 17.35 28.04 17.43 28.93 17.52 29.82 17.57 30.71 17.58 31.6 17.57 32.49 17.54 33.38 17.52 34.27 17.51 35.16 17.5 36.05 17.51 36.94 17.51 37.83 17.52 38.72 17.52 39.61 17.53 40.5 17.52 41.39 17.52 42.28 17.52" class="primitive"/>
            </g>
          </g>
        </g>
        <g stroke-width="0.3" fill="#000000" fill-opacity="0.000" class="geometry" id="img-0a98fed8-38">
          <g class="color_RGB{N0f8}(1.0,0.0,0.0)" stroke-dasharray="none" stroke="#FF0000" id="img-0a98fed8-39">
            <g transform="translate(68.48,68.17)" id="img-0a98fed8-40">
              <path fill="none" d="M-42.28,16.52 L -41.39 16.52 -40.5 16.52 -39.61 16.52 -38.72 16.52 -37.83 16.52 -36.94 16.52 -36.05 16.52 -35.16 16.52 -34.27 16.52 -33.38 16.52 -32.49 16.52 -31.6 16.52 -30.71 16.52 -29.82 16.52 -28.93 16.52 -28.04 16.52 -27.15 16.52 -26.26 16.52 -25.37 16.52 -24.48 16.52 -23.59 16.52 -22.7 16.52 -21.81 16.52 -20.92 16.52 -20.03 -31.53 -19.14 -31.53 -18.25 -31.53 -17.36 -31.53 -16.47 -31.53 -15.58 -31.53 -14.69 -31.53 -13.8 -31.53 -12.91 -31.53 -12.02 -31.53 -11.13 -31.53 -10.24 -31.53 -9.35 -31.53 -8.46 -31.53 -7.57 -31.53 -6.68 -31.53 -5.79 -31.53 -4.9 -31.53 -4.01 -31.53 -3.12 -31.53 -2.23 -31.53 -1.34 -29.61 -0.45 -27.69 0.45 -25.77 1.34 -23.85 2.23 -21.92 3.12 -20 4.01 -18.08 4.9 -16.16 5.79 -14.24 6.68 -12.31 7.57 -10.39 8.46 -8.47 9.35 -6.55 10.24 -4.62 11.13 -2.7 12.02 -0.78 12.91 1.14 13.8 3.06 14.69 4.99 15.58 6.91 16.47 8.83 17.36 10.75 18.25 12.67 19.14 14.6 20.03 16.52 20.92 16.52 21.81 16.52 22.7 16.52 23.59 16.52 24.48 16.52 25.37 16.52 26.26 16.52 27.15 16.52 28.04 16.52 28.93 16.52 29.82 16.52 30.71 16.52 31.6 16.52 32.49 16.52 33.38 16.52 34.27 16.52 35.16 16.52 36.05 16.52 36.94 16.52 37.83 16.52 38.72 16.52 39.61 16.52 40.5 16.52 41.39 16.52 42.28 16.52" class="primitive"/>
            </g>
          </g>
        </g>
        <g class="geometry" id="img-0a98fed8-41">
          <g stroke-width="0.3" id="img-0a98fed8-42">
            <g class="color_RGBA{Float32}(1.0f0,0.64705884f0,0.0f0,1.0f0)" fill-opacity="1" stroke="#FFFFFF" fill="#FFA500" id="img-0a98fed8-43">
              <g class="marker" id="img-0a98fed8-44">
                <g transform="translate(110.76,84.69)" id="img-0a98fed8-45">
                  <circle cx="0" cy="0" r="0.9" class="primitive"/>
                </g>
              </g>
            </g>
            <g class="color_RGBA{Float32}(1.0f0,0.64705884f0,0.0f0,1.0f0)" fill-opacity="1" stroke="#FFFFFF" fill="#FFA500" id="img-0a98fed8-46">
              <g class="marker" id="img-0a98fed8-47">
                <g transform="translate(106.31,84.69)" id="img-0a98fed8-48">
                  <circle cx="0" cy="0" r="0.9" class="primitive"/>
                </g>
              </g>
            </g>
            <g class="color_RGBA{Float32}(1.0f0,0.64705884f0,0.0f0,1.0f0)" fill-opacity="1" stroke="#FFFFFF" fill="#FFA500" id="img-0a98fed8-49">
              <g class="marker" id="img-0a98fed8-50">
                <g transform="translate(101.86,84.69)" id="img-0a98fed8-51">
                  <circle cx="0" cy="0" r="0.9" class="primitive"/>
                </g>
              </g>
            </g>
            <g class="color_RGBA{Float32}(1.0f0,0.64705884f0,0.0f0,1.0f0)" fill-opacity="1" stroke="#FFFFFF" fill="#FFA500" id="img-0a98fed8-52">
              <g class="marker" id="img-0a98fed8-53">
                <g transform="translate(97.41,84.69)" id="img-0a98fed8-54">
                  <circle cx="0" cy="0" r="0.9" class="primitive"/>
                </g>
              </g>
            </g>
            <g class="color_RGBA{Float32}(1.0f0,0.64705884f0,0.0f0,1.0f0)" fill-opacity="1" stroke="#FFFFFF" fill="#FFA500" id="img-0a98fed8-55">
              <g class="marker" id="img-0a98fed8-56">
                <g transform="translate(92.96,84.69)" id="img-0a98fed8-57">
                  <circle cx="0" cy="0" r="0.9" class="primitive"/>
                </g>
              </g>
            </g>
            <g class="color_RGBA{Float32}(1.0f0,0.64705884f0,0.0f0,1.0f0)" fill-opacity="1" stroke="#FFFFFF" fill="#FFA500" id="img-0a98fed8-58">
              <g class="marker" id="img-0a98fed8-59">
                <g transform="translate(88.51,84.69)" id="img-0a98fed8-60">
                  <circle cx="0" cy="0" r="0.9" class="primitive"/>
                </g>
              </g>
            </g>
            <g class="color_RGBA{Float32}(1.0f0,0.64705884f0,0.0f0,1.0f0)" fill-opacity="1" stroke="#FFFFFF" fill="#FFA500" id="img-0a98fed8-61">
              <g class="marker" id="img-0a98fed8-62">
                <g transform="translate(84.06,75.08)" id="img-0a98fed8-63">
                  <circle cx="0" cy="0" r="0.9" class="primitive"/>
                </g>
              </g>
            </g>
            <g class="color_RGBA{Float32}(1.0f0,0.64705884f0,0.0f0,1.0f0)" fill-opacity="1" stroke="#FFFFFF" fill="#FFA500" id="img-0a98fed8-64">
              <g class="marker" id="img-0a98fed8-65">
                <g transform="translate(79.61,65.47)" id="img-0a98fed8-66">
                  <circle cx="0" cy="0" r="0.9" class="primitive"/>
                </g>
              </g>
            </g>
            <g class="color_RGBA{Float32}(1.0f0,0.64705884f0,0.0f0,1.0f0)" fill-opacity="1" stroke="#FFFFFF" fill="#FFA500" id="img-0a98fed8-67">
              <g class="marker" id="img-0a98fed8-68">
                <g transform="translate(75.16,55.86)" id="img-0a98fed8-69">
                  <circle cx="0" cy="0" r="0.9" class="primitive"/>
                </g>
              </g>
            </g>
            <g class="color_RGBA{Float32}(1.0f0,0.64705884f0,0.0f0,1.0f0)" fill-opacity="1" stroke="#FFFFFF" fill="#FFA500" id="img-0a98fed8-70">
              <g class="marker" id="img-0a98fed8-71">
                <g transform="translate(70.7,46.25)" id="img-0a98fed8-72">
                  <circle cx="0" cy="0" r="0.9" class="primitive"/>
                </g>
              </g>
            </g>
            <g class="color_RGBA{Float32}(1.0f0,0.64705884f0,0.0f0,1.0f0)" fill-opacity="1" stroke="#FFFFFF" fill="#FFA500" id="img-0a98fed8-73">
              <g class="marker" id="img-0a98fed8-74">
                <g transform="translate(66.25,36.64)" id="img-0a98fed8-75">
                  <circle cx="0" cy="0" r="0.9" class="primitive"/>
                </g>
              </g>
            </g>
            <g class="color_RGBA{Float32}(1.0f0,0.64705884f0,0.0f0,1.0f0)" fill-opacity="1" stroke="#FFFFFF" fill="#FFA500" id="img-0a98fed8-76">
              <g class="marker" id="img-0a98fed8-77">
                <g transform="translate(61.8,36.64)" id="img-0a98fed8-78">
                  <circle cx="0" cy="0" r="0.9" class="primitive"/>
                </g>
              </g>
            </g>
            <g class="color_RGBA{Float32}(1.0f0,0.64705884f0,0.0f0,1.0f0)" fill-opacity="1" stroke="#FFFFFF" fill="#FFA500" id="img-0a98fed8-79">
              <g class="marker" id="img-0a98fed8-80">
                <g transform="translate(57.35,36.64)" id="img-0a98fed8-81">
                  <circle cx="0" cy="0" r="0.9" class="primitive"/>
                </g>
              </g>
            </g>
            <g class="color_RGBA{Float32}(1.0f0,0.64705884f0,0.0f0,1.0f0)" fill-opacity="1" stroke="#FFFFFF" fill="#FFA500" id="img-0a98fed8-82">
              <g class="marker" id="img-0a98fed8-83">
                <g transform="translate(52.9,36.64)" id="img-0a98fed8-84">
                  <circle cx="0" cy="0" r="0.9" class="primitive"/>
                </g>
              </g>
            </g>
            <g class="color_RGBA{Float32}(1.0f0,0.64705884f0,0.0f0,1.0f0)" fill-opacity="1" stroke="#FFFFFF" fill="#FFA500" id="img-0a98fed8-85">
              <g class="marker" id="img-0a98fed8-86">
                <g transform="translate(48.45,36.64)" id="img-0a98fed8-87">
                  <circle cx="0" cy="0" r="0.9" class="primitive"/>
                </g>
              </g>
            </g>
            <g class="color_RGBA{Float32}(1.0f0,0.64705884f0,0.0f0,1.0f0)" fill-opacity="1" stroke="#FFFFFF" fill="#FFA500" id="img-0a98fed8-88">
              <g class="marker" id="img-0a98fed8-89">
                <g transform="translate(44,84.69)" id="img-0a98fed8-90">
                  <circle cx="0" cy="0" r="0.9" class="primitive"/>
                </g>
              </g>
            </g>
            <g class="color_RGBA{Float32}(1.0f0,0.64705884f0,0.0f0,1.0f0)" fill-opacity="1" stroke="#FFFFFF" fill="#FFA500" id="img-0a98fed8-91">
              <g class="marker" id="img-0a98fed8-92">
                <g transform="translate(39.55,84.69)" id="img-0a98fed8-93">
                  <circle cx="0" cy="0" r="0.9" class="primitive"/>
                </g>
              </g>
            </g>
            <g class="color_RGBA{Float32}(1.0f0,0.64705884f0,0.0f0,1.0f0)" fill-opacity="1" stroke="#FFFFFF" fill="#FFA500" id="img-0a98fed8-94">
              <g class="marker" id="img-0a98fed8-95">
                <g transform="translate(35.1,84.69)" id="img-0a98fed8-96">
                  <circle cx="0" cy="0" r="0.9" class="primitive"/>
                </g>
              </g>
            </g>
            <g class="color_RGBA{Float32}(1.0f0,0.64705884f0,0.0f0,1.0f0)" fill-opacity="1" stroke="#FFFFFF" fill="#FFA500" id="img-0a98fed8-97">
              <g class="marker" id="img-0a98fed8-98">
                <g transform="translate(30.65,84.69)" id="img-0a98fed8-99">
                  <circle cx="0" cy="0" r="0.9" class="primitive"/>
                </g>
              </g>
            </g>
            <g class="color_RGBA{Float32}(1.0f0,0.64705884f0,0.0f0,1.0f0)" fill-opacity="1" stroke="#FFFFFF" fill="#FFA500" id="img-0a98fed8-100">
              <g class="marker" id="img-0a98fed8-101">
                <g transform="translate(26.2,84.69)" id="img-0a98fed8-102">
                  <circle cx="0" cy="0" r="0.9" class="primitive"/>
                </g>
              </g>
            </g>
          </g>
        </g>
      </g>
    </g>
  </g>
  <g class="guide ylabels" font-size="2.82" font-family="'PT Sans Caption','Helvetica Neue','Helvetica',sans-serif" fill="#6C606B" id="img-0a98fed8-103">
    <g transform="translate(18.74,108.72)" id="img-0a98fed8-104">
      <g class="primitive">
        <text text-anchor="end" dy="0.35em">-0.5</text>
      </g>
    </g>
    <g transform="translate(18.74,84.69)" id="img-0a98fed8-105">
      <g class="primitive">
        <text text-anchor="end" dy="0.35em">0.0</text>
      </g>
    </g>
    <g transform="translate(18.74,60.66)" id="img-0a98fed8-106">
      <g class="primitive">
        <text text-anchor="end" dy="0.35em">0.5</text>
      </g>
    </g>
    <g transform="translate(18.74,36.64)" id="img-0a98fed8-107">
      <g class="primitive">
        <text text-anchor="end" dy="0.35em">1.0</text>
      </g>
    </g>
    <g transform="translate(18.74,12.61)" id="img-0a98fed8-108">
      <g class="primitive">
        <text text-anchor="end" dy="0.35em">1.5</text>
      </g>
    </g>
  </g>
  <g font-size="3.88" font-family="'PT Sans','Helvetica Neue','Helvetica',sans-serif" fill="#564A55" stroke="#000000" stroke-opacity="0.000" id="img-0a98fed8-109">
    <g transform="translate(8.81,58.66)" id="img-0a98fed8-110">
      <g class="primitive">
        <text text-anchor="middle" dy="0.35em" transform="rotate(-90,0, 2)">f, σ</text>
      </g>
    </g>
  </g>
  <g font-size="3.88" font-family="'PT Sans','Helvetica Neue','Helvetica',sans-serif" fill="#564A55" stroke="#000000" stroke-opacity="0.000" id="img-0a98fed8-111">
    <g transform="translate(66.25,5)" id="img-0a98fed8-112">
      <g class="primitive">
        <text text-anchor="middle" dy="0.6em">Fig.1a</text>
      </g>
    </g>
  </g>
</g>
<defs>
  <clipPath id="img-0a98fed8-18">
    <path d="M19.75,10.61 L 112.76 10.61 112.76 110.72 19.75 110.72" />
  </clipPath>
</defs>
</svg>
